<svg width="25" height="24" viewBox="0 0 25 24" fill="none" xmlns="http://www.w3.org/2000/svg">
<path fill-rule="evenodd" clip-rule="evenodd" d="M22.875 4.93319C22.875 3.46989 21.7097 2.21495 20.1809 2.2682C19.0425 2.30785 17.5546 2.42627 16.4099 2.76895C15.4149 3.06684 14.2956 3.64868 13.4232 4.15363C12.6051 4.62709 11.5867 4.6507 10.7578 4.21244C9.76236 3.68606 8.45266 3.06212 7.31636 2.76227C6.35555 2.50873 5.14017 2.38695 4.15341 2.3263C2.59517 2.23053 1.375 3.49865 1.375 4.9978V16.1436C1.375 17.6798 2.61878 18.8791 4.09304 18.9714C5.0518 19.0313 6.13066 19.1466 6.93364 19.3585C7.9262 19.6205 9.1536 20.2028 10.1446 20.7311C11.3779 21.3885 12.8721 21.3885 14.1054 20.7311C15.0964 20.2028 16.3238 19.6205 17.3164 19.3585C18.1193 19.1466 19.1982 19.0313 20.157 18.9714C21.6312 18.8791 22.875 17.6798 22.875 16.1436V4.93319ZM20.2331 3.76729C20.8479 3.74588 21.375 4.25161 21.375 4.93319V16.1436C21.375 16.8293 20.8067 17.4278 20.0633 17.4743C19.0832 17.5356 17.8841 17.6574 16.9336 17.9082C15.7633 18.217 14.4077 18.8701 13.3998 19.4074C13.2315 19.4971 13.0555 19.5677 12.875 19.6193V5.94203C13.3273 5.85149 13.7671 5.68768 14.1745 5.45188C15.025 4.95969 16.0199 4.45149 16.8401 4.20594C17.7893 3.92179 19.1142 3.80627 20.2331 3.76729ZM11.375 5.97498C10.92 5.90422 10.474 5.75915 10.0567 5.53847C9.07986 5.02196 7.89576 4.46651 6.93364 4.21262C6.12143 3.99829 5.02738 3.88285 4.06139 3.82348C3.42743 3.78451 2.875 4.30062 2.875 4.9978V16.1436C2.875 16.8293 3.44331 17.4278 4.18668 17.4743C5.16676 17.5356 6.36592 17.6574 7.31636 17.9082C8.4867 18.217 9.84227 18.8701 10.8502 19.4074C11.0185 19.4971 11.1945 19.5677 11.375 19.6193V5.97498Z" fill="#AAAAAA"/>
</svg>
