<svg width="24" height="24" viewBox="0 0 24 24" fill="none" xmlns="http://www.w3.org/2000/svg">
<path d="M2 16.127V4.9812C2 3.88303 2.8863 2.99092 3.9824 3.05829C4.95877 3.11829 6.11349 3.23691 7 3.47084C8.04921 3.74771 9.29611 4.33741 10.2823 4.85886C10.5893 5.02122 10.9158 5.13384 11.25 5.19733L11.25 20.376C10.9471 20.3092 10.6515 20.2014 10.3724 20.0526C9.37293 19.5199 8.08145 18.9021 7 18.6168C6.12329 18.3854 4.98428 18.2668 4.01486 18.2062C2.90605 18.1369 2 17.238 2 16.127Z" fill="#0F6FD7"/>
<path d="M12.75 20.376C13.0529 20.3092 13.3485 20.2014 13.6276 20.0526C14.6271 19.5199 15.9185 18.9021 17 18.6168C17.8767 18.3854 19.0157 18.2668 19.9851 18.2062C21.094 18.1369 22 17.238 22 16.127V4.91659C22 3.84414 21.1538 2.96381 20.082 3.00115C18.9534 3.04046 17.5469 3.15743 16.5 3.47084C15.5924 3.74256 14.5353 4.28758 13.6738 4.78615C13.3824 4.95485 13.0708 5.07875 12.75 5.15731L12.75 20.376Z" fill="#0F6FD7"/>
</svg>
