<?xml version="1.0" encoding="UTF-8"?>
<svg xmlns="http://www.w3.org/2000/svg" xmlns:xlink="http://www.w3.org/1999/xlink" width="24px" height="px" viewBox="0 0 24 24" version="1.1">
<g id="surface1">
<path style=" stroke:none;fill-rule:evenodd;fill:rgb(18.82353%,41.960785%,70.19608%);fill-opacity:1;" d="M 7.398438 19 C 7.101562 19.101562 6.800781 19.398438 6.800781 19.699219 L 6.800781 19.898438 C 6.800781 20.101562 6.800781 20.199219 6.898438 20.300781 L 17 20.300781 C 17.101562 20.199219 17.101562 20 17.101562 19.898438 L 17.101562 19.699219 C 17.101562 19.300781 16.800781 19.101562 16.5 19 Z M 8.898438 17.398438 C 8.898438 17.601562 8.898438 17.898438 8.699219 18.101562 C 8.398438 18.398438 8.101562 18.398438 7.800781 18.699219 L 16.101562 18.699219 C 15.898438 18.5 15.699219 18.300781 15.398438 18.199219 C 15 18 14.898438 17.699219 15 17.398438 Z M 14.699219 10.300781 L 15.300781 10.898438 C 15.5 11 15.800781 11 16.101562 10.800781 C 16.199219 10.699219 15.800781 10.300781 15.898438 10.199219 C 16 10.101562 16.5 10.398438 16.601562 10.300781 C 16.898438 10 17 9.5 16.601562 9.101562 C 15.800781 8.101562 14.898438 8.101562 14.800781 7.199219 C 14.699219 7 14.800781 6.699219 14.699219 6.5 C 14.5 6.199219 14.199219 6.199219 14.101562 6.199219 C 13.699219 5.800781 13.199219 5.5 12.601562 5.300781 L 12.898438 5.199219 C 13 4.699219 13.5 4 13.898438 3.5 C 12.601562 3.601562 11.898438 4.199219 11.398438 5 L 11.601562 4.101562 C 11 4.398438 10.5 4.601562 10 4.898438 L 10.199219 5.5 L 9.699219 5.101562 C 9.398438 5.300781 9 5.601562 8.699219 5.898438 L 9.101562 6.398438 L 8.5 6.199219 C 8.300781 6.5 8.101562 6.800781 7.898438 7.199219 L 8.398438 7.601562 L 7.699219 7.601562 C 7.601562 7.898438 7.398438 8.300781 7.300781 8.699219 L 7.398438 8.699219 L 8 9 L 7.398438 9.101562 L 7.300781 9.101562 C 7.199219 9.5 7.199219 9.898438 7.199219 10.300781 L 7.800781 10.398438 L 7.199219 10.699219 L 7.101562 10.699219 C 7.199219 11.898438 7.5 13.300781 8.101562 14.5 L 8.699219 15.800781 L 8.398438 15.800781 C 8.199219 15.800781 8 16 8 16.300781 L 8 16.5 C 8 16.699219 8.199219 17 8.398438 17 L 15.5 17 C 15.699219 16.898438 15.898438 16.699219 15.898438 16.5 L 15.898438 16.300781 C 15.898438 16 15.699219 15.800781 15.398438 15.800781 C 15.398438 12.699219 11.800781 11.898438 11.898438 9.199219 C 12.398438 10.199219 13.199219 10.199219 13.898438 10.101562 C 14.199219 10.101562 14.5 10.101562 14.699219 10.300781 Z M 14.699219 10.300781 "/>
</g>
</svg>
