<svg width="25" height="24" viewBox="0 0 25 24" fill="none" xmlns="http://www.w3.org/2000/svg">
<path d="M9.74983 15.1602C9.44028 14.9308 9.00333 14.9957 8.77389 15.3053C8.54444 15.6148 8.60937 16.0518 8.91892 16.2812C9.82349 16.9517 10.9297 17.3486 12.1251 17.3486C13.3204 17.3486 14.4267 16.9517 15.3312 16.2812C15.6408 16.0518 15.7057 15.6148 15.4763 15.3053C15.2468 14.9957 14.8099 14.9308 14.5003 15.1602C13.8228 15.6624 13.005 15.9533 12.1251 15.9533C11.2452 15.9533 10.4274 15.6624 9.74983 15.1602Z" fill="#AAAAAA"/>
<path fill-rule="evenodd" clip-rule="evenodd" d="M12.125 2C11.4505 2 10.8351 2.18522 10.1615 2.49963C9.50948 2.80398 8.75544 3.25317 7.81043 3.81612L6.45637 4.62273C5.41533 5.24285 4.58579 5.737 3.9577 6.20953C3.30931 6.69733 2.82266 7.19963 2.50553 7.86114C2.18824 8.52297 2.10225 9.21563 2.12983 10.024C2.15653 10.8065 2.29342 11.7578 2.46506 12.9506L2.73702 14.8406C2.95784 16.3754 3.13308 17.5933 3.39488 18.5415C3.66475 19.519 4.04766 20.2948 4.73863 20.8898C5.42903 21.4843 6.25508 21.7502 7.26579 21.8769C8.24736 22 9.48575 22 11.0481 22H13.2019C14.7642 22 16.0026 22 16.9842 21.8769C17.9949 21.7502 18.821 21.4843 19.5114 20.8898C20.2023 20.2948 20.5853 19.519 20.8551 18.5416C21.1169 17.5934 21.2922 16.3754 21.513 14.8407L21.785 12.9506C21.9566 11.7578 22.0935 10.8065 22.1202 10.024C22.1478 9.21563 22.0618 8.52297 21.7445 7.86114C21.4273 7.19963 20.9407 6.69733 20.2923 6.20953C19.6642 5.737 18.8347 5.24285 17.7936 4.62273L16.4396 3.81612C15.4946 3.25317 14.7405 2.80398 14.0885 2.49963C13.4149 2.18522 12.7995 2 12.125 2ZM8.49298 5.03368C9.47671 4.44769 10.1708 4.03517 10.7517 3.76403C11.3183 3.49957 11.7257 3.39535 12.125 3.39535C12.5243 3.39535 12.9317 3.49956 13.4983 3.76403C14.0792 4.03517 14.7733 4.44768 15.757 5.03368L17.0452 5.80107C18.1283 6.44626 18.8926 6.90264 19.4534 7.32456C20.0008 7.73639 20.3006 8.07716 20.4862 8.46434C20.6717 8.8512 20.7488 9.29616 20.7256 9.97646C20.7018 10.674 20.5767 11.5501 20.3981 12.7917L20.1388 14.5939C19.9095 16.1875 19.7456 17.3174 19.5101 18.1702C19.28 19.0036 19.003 19.4862 18.6009 19.8324C18.1982 20.1792 17.6762 20.3839 16.8106 20.4924C15.9259 20.6034 14.775 20.6047 13.1539 20.6047H11.0961C9.47499 20.6047 8.32412 20.6034 7.43941 20.4924C6.5738 20.3839 6.05178 20.1792 5.6491 19.8324C5.24699 19.4862 4.97 19.0036 4.7399 18.1702C4.50445 17.3174 4.34054 16.1875 4.11123 14.5939L3.85191 12.7917C3.67325 11.55 3.54817 10.674 3.52437 9.97645C3.50116 9.29616 3.57829 8.8512 3.76376 8.46434C3.94938 8.07716 4.24916 7.73639 4.79657 7.32456C5.35739 6.90264 6.12168 6.44626 7.20476 5.80107L8.49298 5.03368Z" fill="#AAAAAA"/>
</svg>
