<svg width="25" height="24" viewBox="0 0 25 24" fill="none" xmlns="http://www.w3.org/2000/svg">
<path fill-rule="evenodd" clip-rule="evenodd" d="M12.125 1.5C9.50165 1.5 7.375 3.62665 7.375 6.25C7.375 8.87335 9.50165 11 12.125 11C14.7484 11 16.875 8.87335 16.875 6.25C16.875 3.62665 14.7484 1.5 12.125 1.5ZM8.875 6.25C8.875 4.45507 10.3301 3 12.125 3C13.9199 3 15.375 4.45507 15.375 6.25C15.375 8.04493 13.9199 9.5 12.125 9.5C10.3301 9.5 8.875 8.04493 8.875 6.25Z" fill="#AAAAAA"/>
<path fill-rule="evenodd" clip-rule="evenodd" d="M12.125 12.5C10.0857 12.5 8.20252 12.9708 6.80315 13.7704C5.425 14.5579 4.375 15.7601 4.375 17.25C4.375 18.7399 5.425 19.9421 6.80315 20.7296C8.20252 21.5292 10.0857 22 12.125 22C14.1643 22 16.0475 21.5292 17.4469 20.7296C18.825 19.9421 19.875 18.7399 19.875 17.25C19.875 15.7601 18.825 14.5579 17.4469 13.7704C16.0475 12.9708 14.1643 12.5 12.125 12.5ZM5.875 17.25C5.875 16.5307 6.39201 15.733 7.54736 15.0728C8.68149 14.4247 10.2983 14 12.125 14C13.9517 14 15.5685 14.4247 16.7026 15.0728C17.858 15.733 18.375 16.5307 18.375 17.25C18.375 17.9693 17.858 18.767 16.7026 19.4272C15.5685 20.0753 13.9517 20.5 12.125 20.5C10.2983 20.5 8.68149 20.0753 7.54736 19.4272C6.39201 18.767 5.875 17.9693 5.875 17.25Z" fill="#AAAAAA"/>
</svg>
