<svg width="25" height="24" viewBox="0 0 25 24" fill="none" xmlns="http://www.w3.org/2000/svg">
<path fill-rule="evenodd" clip-rule="evenodd" d="M17.573 1.75C16.6745 1.74997 15.9253 1.74995 15.3305 1.82991C14.7027 1.91432 14.1359 2.09999 13.6805 2.55546C13.225 3.01093 13.0393 3.57773 12.9549 4.20552C12.8749 4.8003 12.875 5.54951 12.875 6.44797V6.55199C12.875 7.45046 12.8749 8.1997 12.9549 8.79448C13.0393 9.42227 13.225 9.98907 13.6805 10.4445C14.1359 10.9 14.7027 11.0857 15.3305 11.1701C15.9253 11.2501 16.6745 11.25 17.573 11.25H17.677C18.5755 11.25 19.3247 11.2501 19.9195 11.1701C20.5473 11.0857 21.1141 10.9 21.5695 10.4445C22.025 9.98907 22.2107 9.42227 22.2951 8.79448C22.3751 8.1997 22.375 7.45047 22.375 6.55199V6.44801C22.375 5.54952 22.3751 4.8003 22.2951 4.20552C22.2107 3.57773 22.025 3.01093 21.5695 2.55546C21.1141 2.09999 20.5473 1.91432 19.9195 1.82991C19.3247 1.74995 18.5755 1.74997 17.677 1.75H17.573ZM14.7411 3.61612C14.8714 3.4858 15.0689 3.37858 15.5304 3.31653C16.0134 3.25159 16.661 3.25 17.625 3.25C18.589 3.25 19.2366 3.25159 19.7196 3.31653C20.1811 3.37858 20.3786 3.4858 20.5089 3.61612C20.6392 3.74643 20.7464 3.94393 20.8085 4.40539C20.8734 4.88843 20.875 5.53599 20.875 6.5C20.875 7.46401 20.8734 8.11157 20.8085 8.59461C20.7464 9.05607 20.6392 9.25357 20.5089 9.38388C20.3786 9.5142 20.1811 9.62142 19.7196 9.68346C19.2366 9.74841 18.589 9.75 17.625 9.75C16.661 9.75 16.0134 9.74841 15.5304 9.68346C15.0689 9.62142 14.8714 9.5142 14.7411 9.38388C14.6108 9.25357 14.5036 9.05607 14.4415 8.59461C14.3766 8.11157 14.375 7.46401 14.375 6.5C14.375 5.53599 14.3766 4.88843 14.4415 4.40539C14.5036 3.94393 14.6108 3.74643 14.7411 3.61612Z" fill="#AAAAAA"/>
<path fill-rule="evenodd" clip-rule="evenodd" d="M6.57301 12.75C5.67454 12.75 4.9253 12.7499 4.33052 12.8299C3.70273 12.9143 3.13593 13.1 2.68046 13.5555C2.22499 14.0109 2.03932 14.5777 1.95491 15.2055C1.87495 15.8003 1.87497 16.5495 1.875 17.448V17.552C1.87497 18.4505 1.87495 19.1997 1.95491 19.7945C2.03932 20.4223 2.22499 20.9891 2.68046 21.4445C3.13593 21.9 3.70273 22.0857 4.33052 22.1701C4.92531 22.2501 5.67453 22.25 6.57301 22.25H6.677C7.57548 22.25 8.3247 22.2501 8.91948 22.1701C9.54728 22.0857 10.1141 21.9 10.5695 21.4445C11.025 20.9891 11.2107 20.4223 11.2951 19.7945C11.3751 19.1997 11.375 18.4505 11.375 17.552V17.448C11.375 16.5495 11.3751 15.8003 11.2951 15.2055C11.2107 14.5777 11.025 14.0109 10.5695 13.5555C10.1141 13.1 9.54728 12.9143 8.91948 12.8299C8.32471 12.7499 7.5755 12.75 6.67703 12.75H6.57301ZM3.74112 14.6161C3.87144 14.4858 4.06893 14.3786 4.5304 14.3165C5.01343 14.2516 5.66099 14.25 6.625 14.25C7.58901 14.25 8.23657 14.2516 8.71961 14.3165C9.18107 14.3786 9.37857 14.4858 9.50889 14.6161C9.6392 14.7464 9.74643 14.9439 9.80847 15.4054C9.87341 15.8884 9.875 16.536 9.875 17.5C9.875 18.464 9.87341 19.1116 9.80847 19.5946C9.74643 20.0561 9.6392 20.2536 9.50889 20.3839C9.37857 20.5142 9.18107 20.6214 8.71961 20.6835C8.23657 20.7484 7.58901 20.75 6.625 20.75C5.66099 20.75 5.01343 20.7484 4.5304 20.6835C4.06893 20.6214 3.87144 20.5142 3.74112 20.3839C3.6108 20.2536 3.50358 20.0561 3.44154 19.5946C3.3766 19.1116 3.375 18.464 3.375 17.5C3.375 16.536 3.3766 15.8884 3.44154 15.4054C3.50358 14.9439 3.6108 14.7464 3.74112 14.6161Z" fill="#AAAAAA"/>
<path fill-rule="evenodd" clip-rule="evenodd" d="M1.875 6.5C1.875 3.87665 4.00165 1.75 6.625 1.75C9.24836 1.75 11.375 3.87665 11.375 6.5C11.375 9.12335 9.24836 11.25 6.625 11.25C4.00165 11.25 1.875 9.12335 1.875 6.5ZM6.625 3.25C4.83008 3.25 3.375 4.70507 3.375 6.5C3.375 8.29492 4.83008 9.75 6.625 9.75C8.41993 9.75 9.875 8.29492 9.875 6.5C9.875 4.70507 8.41993 3.25 6.625 3.25Z" fill="#AAAAAA"/>
<path fill-rule="evenodd" clip-rule="evenodd" d="M12.875 17.5C12.875 14.8766 15.0017 12.75 17.625 12.75C20.2484 12.75 22.375 14.8766 22.375 17.5C22.375 20.1234 20.2484 22.25 17.625 22.25C15.0017 22.25 12.875 20.1234 12.875 17.5ZM17.625 14.25C15.8301 14.25 14.375 15.7051 14.375 17.5C14.375 19.2949 15.8301 20.75 17.625 20.75C19.4199 20.75 20.875 19.2949 20.875 17.5C20.875 15.7051 19.4199 14.25 17.625 14.25Z" fill="#AAAAAA"/>
</svg>
